<svg width="173" height="27" viewBox="0 0 173 27" fill="none" xmlns="http://www.w3.org/2000/svg">
<path d="M8.5 24.5L2 17.5L8.5 15L13 20L18.5 15L13 7.5V12.5L2 10L6.5 4.5" stroke="white" stroke-width="2" stroke-linecap="round"/>
<path d="M39.672 13.014C40.5667 13.2633 41.2707 13.718 41.784 14.378C42.2973 15.0233 42.554 15.8447 42.554 16.842C42.554 18.1767 42.048 19.2033 41.036 19.922C40.0387 20.6407 38.5793 21 36.658 21H29.31V5.6H36.218C37.978 5.6 39.3347 5.952 40.288 6.656C41.256 7.36 41.74 8.33533 41.74 9.582C41.74 10.3887 41.5493 11.0853 41.168 11.672C40.8013 12.2587 40.3027 12.706 39.672 13.014ZM31.51 7.382V12.31H36.02C37.1493 12.31 38.0147 12.1047 38.616 11.694C39.232 11.2687 39.54 10.6527 39.54 9.846C39.54 9.03933 39.232 8.43067 38.616 8.02C38.0147 7.59467 37.1493 7.382 36.02 7.382H31.51ZM36.57 19.218C37.8167 19.218 38.7553 19.0127 39.386 18.602C40.0167 18.1913 40.332 17.546 40.332 16.666C40.332 14.95 39.078 14.092 36.57 14.092H31.51V19.218H36.57ZM56.1904 15.236C56.1904 15.3973 56.1757 15.61 56.1464 15.874H46.6864C46.8184 16.9007 47.2657 17.7293 48.0284 18.36C48.8057 18.976 49.7664 19.284 50.9104 19.284C52.3037 19.284 53.4257 18.8147 54.2764 17.876L55.4424 19.24C54.9144 19.856 54.2544 20.3253 53.4624 20.648C52.6851 20.9707 51.8124 21.132 50.8444 21.132C49.6124 21.132 48.5197 20.8827 47.5664 20.384C46.6131 19.8707 45.8724 19.1593 45.3444 18.25C44.8311 17.3407 44.5744 16.314 44.5744 15.17C44.5744 14.0407 44.8237 13.0213 45.3224 12.112C45.8357 11.2027 46.5324 10.4987 47.4124 10C48.3071 9.48667 49.3117 9.23 50.4264 9.23C51.5411 9.23 52.5311 9.48667 53.3964 10C54.2764 10.4987 54.9584 11.2027 55.4424 12.112C55.9411 13.0213 56.1904 14.0627 56.1904 15.236ZM50.4264 11.012C49.4144 11.012 48.5637 11.32 47.8744 11.936C47.1997 12.552 46.8037 13.3587 46.6864 14.356H54.1664C54.0491 13.3733 53.6457 12.574 52.9564 11.958C52.2817 11.3273 51.4384 11.012 50.4264 11.012ZM63.0468 9.23C64.6602 9.23 65.8922 9.626 66.7428 10.418C67.6082 11.21 68.0408 12.3907 68.0408 13.96V21H66.0388V19.46C65.6868 20.0027 65.1808 20.4207 64.5208 20.714C63.8755 20.9927 63.1055 21.132 62.2108 21.132C60.9055 21.132 59.8568 20.8167 59.0648 20.186C58.2875 19.5553 57.8988 18.7267 57.8988 17.7C57.8988 16.6733 58.2728 15.852 59.0208 15.236C59.7688 14.6053 60.9568 14.29 62.5848 14.29H65.9288V13.872C65.9288 12.9627 65.6648 12.266 65.1368 11.782C64.6088 11.298 63.8315 11.056 62.8048 11.056C62.1155 11.056 61.4408 11.1733 60.7808 11.408C60.1208 11.628 59.5635 11.9287 59.1088 12.31L58.2288 10.726C58.8302 10.242 59.5488 9.87533 60.3848 9.626C61.2208 9.362 62.1082 9.23 63.0468 9.23ZM62.5628 19.504C63.3695 19.504 64.0662 19.328 64.6528 18.976C65.2395 18.6093 65.6648 18.096 65.9288 17.436V15.808H62.6728C60.8835 15.808 59.9888 16.4093 59.9888 17.612C59.9888 18.1987 60.2162 18.6607 60.6708 18.998C61.1255 19.3353 61.7562 19.504 62.5628 19.504ZM82.8173 9.34V21H80.8153V19.24C80.3899 19.8413 79.8253 20.3107 79.1213 20.648C78.4319 20.9707 77.6766 21.132 76.8553 21.132C75.3006 21.132 74.0759 20.7067 73.1813 19.856C72.2866 18.9907 71.8393 17.722 71.8393 16.05V9.34H73.9513V15.808C73.9513 16.9373 74.2226 17.7953 74.7653 18.382C75.3079 18.954 76.0853 19.24 77.0973 19.24C78.2119 19.24 79.0919 18.9027 79.7373 18.228C80.3826 17.5533 80.7053 16.6 80.7053 15.368V9.34H82.8173ZM93.3939 20.318C93.0859 20.582 92.7046 20.7873 92.2499 20.934C91.7953 21.066 91.3259 21.132 90.8419 21.132C89.6686 21.132 88.7593 20.8167 88.1139 20.186C87.4686 19.5553 87.1459 18.6533 87.1459 17.48V11.078H85.1659V9.34H87.1459V6.788H89.2579V9.34H92.6019V11.078H89.2579V17.392C89.2579 18.0227 89.4119 18.5067 89.7199 18.844C90.0426 19.1813 90.4973 19.35 91.0839 19.35C91.7293 19.35 92.2793 19.1667 92.7339 18.8L93.3939 20.318ZM95.9473 9.34H98.0593V21H95.9473V9.34ZM97.0033 7.096C96.5926 7.096 96.248 6.964 95.9693 6.7C95.7053 6.436 95.5733 6.11333 95.5733 5.732C95.5733 5.35067 95.7053 5.028 95.9693 4.764C96.248 4.48533 96.5926 4.346 97.0033 4.346C97.414 4.346 97.7513 4.478 98.0153 4.742C98.294 4.99133 98.4333 5.30667 98.4333 5.688C98.4333 6.084 98.294 6.42133 98.0153 6.7C97.7513 6.964 97.414 7.096 97.0033 7.096ZM106.36 6.282C105.099 6.282 104.468 6.964 104.468 8.328V9.34H107.856V11.078H104.512V21H102.4V11.078H100.42V9.34H102.4V8.306C102.4 7.14733 102.737 6.23067 103.412 5.556C104.087 4.88133 105.033 4.544 106.25 4.544C106.719 4.544 107.159 4.60267 107.57 4.72C107.981 4.83733 108.333 5.006 108.626 5.226L107.988 6.832C107.504 6.46533 106.961 6.282 106.36 6.282ZM120.716 9.34V21H118.714V19.24C118.288 19.8413 117.724 20.3107 117.02 20.648C116.33 20.9707 115.575 21.132 114.754 21.132C113.199 21.132 111.974 20.7067 111.08 19.856C110.185 18.9907 109.738 17.722 109.738 16.05V9.34H111.85V15.808C111.85 16.9373 112.121 17.7953 112.664 18.382C113.206 18.954 113.984 19.24 114.996 19.24C116.11 19.24 116.99 18.9027 117.636 18.228C118.281 17.5533 118.604 16.6 118.604 15.368V9.34H120.716ZM124.736 4.676H126.848V21H124.736V4.676ZM138.075 21.176C136.535 21.176 135.142 20.8387 133.895 20.164C132.663 19.4747 131.695 18.536 130.991 17.348C130.287 16.1453 129.935 14.796 129.935 13.3C129.935 11.804 130.287 10.462 130.991 9.274C131.695 8.07133 132.67 7.13267 133.917 6.458C135.164 5.76867 136.557 5.424 138.097 5.424C139.3 5.424 140.4 5.62933 141.397 6.04C142.394 6.436 143.245 7.03 143.949 7.822L142.519 9.208C141.36 7.99067 139.916 7.382 138.185 7.382C137.041 7.382 136.007 7.63867 135.083 8.152C134.159 8.66533 133.433 9.37667 132.905 10.286C132.392 11.1807 132.135 12.1853 132.135 13.3C132.135 14.4147 132.392 15.4267 132.905 16.336C133.433 17.2307 134.159 17.9347 135.083 18.448C136.007 18.9613 137.041 19.218 138.185 19.218C139.901 19.218 141.346 18.602 142.519 17.37L143.949 18.756C143.245 19.548 142.387 20.1493 141.375 20.56C140.378 20.9707 139.278 21.176 138.075 21.176ZM146.779 9.34H148.891V21H146.779V9.34ZM147.835 7.096C147.425 7.096 147.08 6.964 146.801 6.7C146.537 6.436 146.405 6.11333 146.405 5.732C146.405 5.35067 146.537 5.028 146.801 4.764C147.08 4.48533 147.425 4.346 147.835 4.346C148.246 4.346 148.583 4.478 148.847 4.742C149.126 4.99133 149.265 5.30667 149.265 5.688C149.265 6.084 149.126 6.42133 148.847 6.7C148.583 6.964 148.246 7.096 147.835 7.096ZM159.48 20.318C159.172 20.582 158.791 20.7873 158.336 20.934C157.881 21.066 157.412 21.132 156.928 21.132C155.755 21.132 154.845 20.8167 154.2 20.186C153.555 19.5553 153.232 18.6533 153.232 17.48V11.078H151.252V9.34H153.232V6.788H155.344V9.34H158.688V11.078H155.344V17.392C155.344 18.0227 155.498 18.5067 155.806 18.844C156.129 19.1813 156.583 19.35 157.17 19.35C157.815 19.35 158.365 19.1667 158.82 18.8L159.48 20.318ZM172.136 9.34L166.482 22.166C165.984 23.354 165.397 24.19 164.722 24.674C164.062 25.158 163.263 25.4 162.324 25.4C161.752 25.4 161.195 25.3047 160.652 25.114C160.124 24.938 159.684 24.674 159.332 24.322L160.234 22.738C160.836 23.31 161.532 23.596 162.324 23.596C162.838 23.596 163.263 23.4567 163.6 23.178C163.952 22.914 164.268 22.452 164.546 21.792L164.92 20.978L159.772 9.34H161.972L166.042 18.668L170.068 9.34H172.136Z" fill="white"/>
</svg>
